<!-- Generated by IcoMoon.io -->
<svg version="1.1" xmlns="http://www.w3.org/2000/svg" width="16" height="16" viewBox="0 0 16 16">
<path fill="currentColor" d="M14.5 0h-13c-0.825 0-1.5 0.675-1.5 1.5v9c0 0.825 0.675 1.5 1.5 1.5h2.5v4l4.8-4h5.7c0.825 0 1.5-0.675 1.5-1.5v-9c0-0.825-0.675-1.5-1.5-1.5zM7 8.25c0 0.412-0.338 0.75-0.75 0.75h-2.5c-0.413 0-0.75-0.338-0.75-0.75v-5.25l2-1.5v3.5h1.25c0.412 0 0.75 0.338 0.75 0.75v2.5zM13 8.25c0 0.412-0.338 0.75-0.75 0.75h-2.5c-0.412 0-0.75-0.338-0.75-0.75v-5.25l2-1.5v3.5h1.25c0.412 0 0.75 0.338 0.75 0.75v2.5z"></path>
</svg>
