<!-- Generated by IcoMoon.io -->
<svg version="1.1" xmlns="http://www.w3.org/2000/svg" width="16" height="16" viewBox="0 0 16 16">
<path fill="currentColor" d="M14.5 16h-14c-0.276 0-0.5-0.224-0.5-0.5v-15c0-0.276 0.224-0.5 0.5-0.5h14c0.276 0 0.5 0.224 0.5 0.5v15c0 0.276-0.224 0.5-0.5 0.5zM1 15h13v-14h-13v14z"></path>
<path fill="currentColor" d="M2 2h11v3h-11v-3z"></path>
<path fill="currentColor" d="M2 6h2v2h-2v-2z"></path>
<path fill="currentColor" d="M5 6h2v2h-2v-2z"></path>
<path fill="currentColor" d="M8 6h2v2h-2v-2z"></path>
<path fill="currentColor" d="M2 9h2v2h-2v-2z"></path>
<path fill="currentColor" d="M5 9h2v2h-2v-2z"></path>
<path fill="currentColor" d="M8 9h2v2h-2v-2z"></path>
<path fill="currentColor" d="M2 12h2v2h-2v-2z"></path>
<path fill="currentColor" d="M5 12h2v2h-2v-2z"></path>
<path fill="currentColor" d="M8 12h2v2h-2v-2z"></path>
<path fill="currentColor" d="M11 9h2v5h-2v-5z"></path>
<path fill="currentColor" d="M11 6h2v2h-2v-2z"></path>
</svg>
