<!-- Generated by IcoMoon.io -->
<svg version="1.1" xmlns="http://www.w3.org/2000/svg" width="16" height="16" viewBox="0 0 16 16">
<path fill="currentColor" d="M15.275 3.038c0.531 0.152 0.839 0.705 0.687 1.236l-2 7c-0.123 0.429-0.515 0.725-0.962 0.725h-8.5c-0.504 0-0.93-0.376-0.992-0.876l-0.89-7.124h-1.617c-0.552 0-1-0.448-1-1s0.448-1 1-1h2.5c0.504 0 0.93 0.376 0.992 0.876l0.891 7.124h6.863l1.793-6.275c0.152-0.531 0.705-0.838 1.236-0.687zM4 14.5c0-0.828 0.672-1.5 1.5-1.5s1.5 0.672 1.5 1.5c0 0.828-0.672 1.5-1.5 1.5s-1.5-0.672-1.5-1.5zM10 14.5c0-0.828 0.672-1.5 1.5-1.5s1.5 0.672 1.5 1.5c0 0.828-0.672 1.5-1.5 1.5s-1.5-0.672-1.5-1.5z"></path>
</svg>
