<!-- Generated by IcoMoon.io -->
<svg version="1.1" xmlns="http://www.w3.org/2000/svg" width="17" height="16" viewBox="0 0 17 16">
<path fill="currentColor" d="M1 4h15v1.5h-15v-1.5z"></path>
<path fill="currentColor" d="M2 2h13v1.5h-13v-1.5z"></path>
<path fill="currentColor" d="M0 6v9h17v-9h-17zM3 14h-2v-2h1v1h1v1zM3 8h-1v1h-1v-2h2v1zM8.5 14c-1.93 0-3.5-1.57-3.5-3.5s1.57-3.5 3.5-3.5 3.5 1.57 3.5 3.5-1.57 3.5-3.5 3.5zM16 14h-2v-1h1v-1h1v2zM16 9h-1v-1h-1v-1h2v2z"></path>
<path fill="currentColor" d="M8.5 8c-1.378 0-2.5 1.121-2.5 2.5s1.122 2.5 2.5 2.5 2.5-1.121 2.5-2.5-1.121-2.5-2.5-2.5z"></path>
</svg>
