<!-- Generated by IcoMoon.io -->
<svg version="1.1" xmlns="http://www.w3.org/2000/svg" width="17" height="16" viewBox="0 0 17 16">
<path fill="currentColor" d="M7 9h1v1h-1v-1z"></path>
<path fill="currentColor" d="M0 6v9h17v-9h-17zM3 14h-2v-2h1v1h1v1zM3 8h-1v1h-1v-2h2v1zM10.5 10c0.276 0 0.5 0.224 0.5 0.5v2c0 0.276-0.224 0.5-0.5 0.5h-1.5v0.5c0 0.276-0.224 0.5-0.5 0.5s-0.5-0.224-0.5-0.5v-0.5h-1.5c-0.276 0-0.5-0.224-0.5-0.5s0.224-0.5 0.5-0.5h1.5v-1h-1.5c-0.276 0-0.5-0.224-0.5-0.5v-2c0-0.276 0.224-0.5 0.5-0.5h1.5v-0.5c0-0.276 0.224-0.5 0.5-0.5s0.5 0.224 0.5 0.5v0.5h1.5c0.276 0 0.5 0.224 0.5 0.5s-0.224 0.5-0.5 0.5h-1.5v1h1.5zM16 14h-2v-1h1v-1h1v2zM16 9h-1v-1h-1v-1h2v2z"></path>
<path fill="currentColor" d="M9 11h1v1h-1v-1z"></path>
<path fill="currentColor" d="M1 4h15v1.5h-15v-1.5z"></path>
<path fill="currentColor" d="M2 2h13v1.5h-13v-1.5z"></path>
</svg>
