<!-- Generated by IcoMoon.io -->
<svg version="1.1" xmlns="http://www.w3.org/2000/svg" width="16" height="16" viewBox="0 0 16 16">
<path fill="currentColor" d="M14.039 0l1.051 8.931-1.179 0.139-0.938-7.976h-9.944l-0.938 7.976-1.179-0.139 1.051-8.931zM4 2h8v1h-8zM4 4h8v1h-8zM4 6h8v1h-8zM4 8h8v1h-8zM15.5 10h-15c-0.275 0-0.429 0.213-0.342 0.474l1.684 5.051c0.087 0.261 0.383 0.474 0.658 0.474h11c0.275 0 0.571-0.213 0.658-0.474l1.684-5.051c0.087-0.261-0.067-0.474-0.342-0.474zM10 12h-4v-1h4v1z"></path>
</svg>
