<!-- Generated by IcoMoon.io -->
<svg version="1.1" xmlns="http://www.w3.org/2000/svg" width="16" height="16" viewBox="0 0 16 16">
<path fill="currentColor" d="M14 9v-6c0-0.552-0.448-1-1-1h-11c-0.552 0-1 0.448-1 1v6h5v5h-0.5c-0.276 0-0.5 0.224-0.5 0.5s0.224 0.5 0.5 0.5h-1c-0.276 0-0.5 0.224-0.5 0.5s0.224 0.5 0.5 0.5h6c0.276 0 0.5-0.224 0.5-0.5s-0.224-0.5-0.5-0.5h-1c0.276 0 0.5-0.224 0.5-0.5s-0.224-0.5-0.5-0.5h-0.5v-5h2v3c0 0.552 0.448 1 1 1s1-0.448 1-1-0.448-1-1-1v-2h2zM12 3h1v5h-1v-5zM3 8h-1v-5h1v5zM5 8h-1v-5h1v5zM7 8h-1v-5h1v5zM9 8h-1v-5h1v5zM11 8h-1v-5h1v5z"></path>
</svg>
