<!-- Generated by IcoMoon.io -->
<svg version="1.1" xmlns="http://www.w3.org/2000/svg" width="16" height="16" viewBox="0 0 16 16">
<path fill="currentColor" d="M13 5v-2.5c0-0.275-0.225-0.5-0.5-0.5h-3.5v-1c0-0.55-0.45-1-1-1h-2c-0.55 0-1 0.45-1 1v1h-3.5c-0.275 0-0.5 0.225-0.5 0.5v10c0 0.275 0.225 0.5 0.5 0.5h4.5v3h7l3-3v-8h-3zM6 1.002c0.001-0.001 0.001-0.001 0.002-0.002h1.996c0.001 0.001 0.001 0.001 0.002 0.002v0.998h-2v-0.998zM3 4v-1h8v1h-8zM13 14.586v-1.586h1.586l-1.586 1.586zM15 12h-3v3h-5v-9h8v6z"></path>
</svg>
