<!-- Generated by IcoMoon.io -->
<svg version="1.1" xmlns="http://www.w3.org/2000/svg" width="21" height="16" viewBox="0 0 21 16">
<path fill="currentColor" d="M14.964 7.134c-0.809-0.467-1.915-0.854-2.865-1.134 0.95-0.28 2.056-0.667 2.865-1.134 0.478-0.276 0.642-0.888 0.366-1.366s-0.888-0.642-1.366-0.366c-0.809 0.467-1.697 1.232-2.415 1.914 0.232-0.963 0.45-2.114 0.45-3.048 0-0.552-0.448-1-1-1s-1 0.448-1 1c0 0.934 0.218 2.086 0.45 3.048-0.717-0.683-1.606-1.447-2.415-1.914-0.478-0.276-1.090-0.112-1.366 0.366s-0.112 1.090 0.366 1.366c0.809 0.467 1.915 0.854 2.865 1.134-0.95 0.28-2.056 0.667-2.865 1.134-0.478 0.276-0.642 0.888-0.366 1.366s0.888 0.642 1.366 0.366c0.809-0.467 1.697-1.232 2.415-1.914-0.232 0.963-0.45 2.114-0.45 3.048 0 0.552 0.448 1 1 1s1-0.448 1-1c0-0.934-0.218-2.086-0.45-3.048 0.717 0.683 1.606 1.447 2.415 1.914 0.478 0.276 1.090 0.112 1.366-0.366s0.112-1.090-0.366-1.366z"></path>
<path fill="currentColor" d="M7 13.5c0 0.828-0.672 1.5-1.5 1.5s-1.5-0.672-1.5-1.5c0-0.828 0.672-1.5 1.5-1.5s1.5 0.672 1.5 1.5z"></path>
<path fill="currentColor" d="M0 16l4-16h2l-4 16z"></path>
<path fill="currentColor" d="M15 16l4-16h2l-4 16z"></path>
</svg>
