<!-- Generated by IcoMoon.io -->
<svg version="1.1" xmlns="http://www.w3.org/2000/svg" width="16" height="16" viewBox="0 0 16 16">
<path fill="currentColor" d="M15.5 11h-5c-0.828 0-1.5-0.672-1.5-1.5v-3.671c1.165-0.412 2-1.523 2-2.829 0-1.657-1.343-3-3-3s-3 1.343-3 3c0 1.306 0.835 2.417 2 2.829v3.671c0 0.828-0.672 1.5-1.5 1.5h-5c-0.276 0-0.5 0.224-0.5 0.5v2c0 0.276 0.224 0.5 0.5 0.5h15c0.276 0 0.5-0.224 0.5-0.5v-2c0-0.276-0.224-0.5-0.5-0.5z"></path>
<path fill="currentColor" d="M1 14.5v1c0 0.276 0.224 0.5 0.5 0.5h13c0.276 0 0.5-0.224 0.5-0.5v-1h-14z"></path>
</svg>
