<!-- Generated by IcoMoon.io -->
<svg version="1.1" xmlns="http://www.w3.org/2000/svg" width="16" height="16" viewBox="0 0 16 16">
<path fill="currentColor" d="M14.374 8l1.425-1.78-2.056-0.986 0.512-2.222-2.28 0.004-0.503-2.224-2.053 0.993-1.418-1.786-1.418 1.786-2.053-0.993-0.503 2.224-2.28-0.004 0.512 2.222-2.056 0.986 1.425 1.78-1.425 1.78 2.056 0.986-0.512 2.222 2.28-0.004 0.503 2.224 2.053-0.993 1.418 1.786 1.418-1.786 2.053 0.993 0.503-2.224 2.28 0.004-0.512-2.222 2.056-0.986-1.425-1.78zM8 13.141c-2.743 0-4.966-2.302-4.966-5.141s2.223-5.141 4.966-5.141c2.743 0 4.966 2.302 4.966 5.141s-2.223 5.141-4.966 5.141zM4 8c0-2.209 1.791-4 4-4s4 1.791 4 4c0 2.209-1.791 4-4 4s-4-1.791-4-4z"></path>
</svg>
