<!-- Generated by IcoMoon.io -->
<svg version="1.1" xmlns="http://www.w3.org/2000/svg" width="16" height="16" viewBox="0 0 16 16">
<path fill="currentColor" d="M10.5 6c0.935 0 1.814 0.364 2.475 1.025s1.025 1.54 1.025 2.475-0.364 1.814-1.025 2.475c-0.661 0.661-1.54 1.025-2.475 1.025h-5c-0.935 0-1.814-0.364-2.475-1.025s-1.025-1.54-1.025-2.475 0.364-1.814 1.025-2.475c0.661-0.661 1.54-1.025 2.475-1.025h5zM10.5 4h-5c-3.038 0-5.5 2.462-5.5 5.5s2.462 5.5 5.5 5.5h5c3.038 0 5.5-2.462 5.5-5.5s-2.462-5.5-5.5-5.5v0z"></path>
<path fill="currentColor" d="M8 9.5c0 1.381-1.119 2.5-2.5 2.5s-2.5-1.119-2.5-2.5c0-1.381 1.119-2.5 2.5-2.5s2.5 1.119 2.5 2.5z"></path>
</svg>
