<!-- Generated by IcoMoon.io -->
<svg version="1.1" xmlns="http://www.w3.org/2000/svg" width="16" height="16" viewBox="0 0 16 16">
<path fill="currentColor" d="M14 6v-3.5c0-0.276-0.224-0.5-0.5-0.5h-3.5v-2l-2.5 2.5 2.5 2.5v-2h3v3h-2l2.5 2.5 2.5-2.5h-2z"></path>
<path fill="currentColor" d="M11.25 8h-3.25v-3.25c0-0.412-0.338-0.75-0.75-0.75h-6.5c-0.412 0-0.75 0.338-0.75 0.75v6.5c0 0.412 0.338 0.75 0.75 0.75h3.25v3.25c0 0.412 0.338 0.75 0.75 0.75h6.5c0.412 0 0.75-0.338 0.75-0.75v-6.5c0-0.412-0.338-0.75-0.75-0.75zM11 15h-6v-3h2.25c0.412 0 0.75-0.338 0.75-0.75v-2.25h3v6z"></path>
</svg>
